:SAMPLES-PER-SECOND 30
:FULLY-SPECIFIED
:DEGREES
777
root  -55.6608 39.3478 9.69376 171.163 -73.6782 -164.372
RightUpLeg  -14.023 0.665976 -8.0832
RightLeg  16.2406 7.08854 1.85273
RightFoot  -6.6231 -0.478389 10.4857
RightToes  1.33877e-009 0 -3.6325e-017
Spine  28.3533 0.0587185 10.5938
Spine1  7.15265 6.52786 -14.5448
HEad  -27.1445 -6.87443 5.10544
LeftShoulder1  1.3223 -5.38102 -7.28683
LeftArm  -50.1517 -65.166 -14.8857
LeftForeArm  -11.4112 -29.7405 -7.06007
LeftHand  -0.0260927 4.21327 0.306089
RightShoulder  0.411093 3.95763 -3.36871
RightArm  -48.64 64.5648 7.30127
RightForeArm  -39.7883 8.42463 -2.57275
RightHand  0.107989 4.17997 1.03204
LeftUpLeg  -30.1612 10.0573 -0.330711
LeftLeg  16.2229 -7.69683 -2.90051
LeftFoot  9.15481 -1.4263 7.56766
LeftToes  -1.45701e-009 4.75788e-011 -4.21586e-011
778
root  -55.6669 39.346 9.95678 173.009 -72.4398 -166.819
RightUpLeg  -13.7841 1.14263 -8.95182
RightLeg  15.8652 7.96736 1.99231
RightFoot  -6.1712 -0.548517 11.1842
RightToes  1.33877e-009 0 -3.6325e-017
Spine  28.0636 0.297235 10.0727
Spine1  7.00609 6.68697 -14.8473
HEad  -26.4213 -6.90172 5.71488
LeftShoulder1  1.36274 -5.2789 -7.99571
LeftArm  -45.0282 -62.4514 -18.4226
LeftForeArm  -11.4332 -33.0159 -7.93348
LeftHand  -0.0311214 1.86209 0.707083
RightShoulder  0.472896 4.32893 -2.75796
RightArm  -46.6836 62.425 11.3714
RightForeArm  -37.4475 12.6615 -1.66094
RightHand  0.06925 4.7089 0.502199
LeftUpLeg  -29.3564 10.4421 -0.698493
LeftLeg  15.9328 -6.73673 -2.82382
LeftFoot  8.98946 -1.45335 7.78562
LeftToes  -1.45701e-009 4.75788e-011 -4.21586e-011
779
root  -55.6625 39.3675 10.2497 173.641 -70.9934 -168.25
RightUpLeg  -13.2357 1.46501 -9.45757
RightLeg  15.2546 9.1035 2.08744
RightFoot  -5.44181 -0.633122 11.5286
RightToes  1.33877e-009 0 -3.6325e-017
Spine  27.9673 0.394419 9.45868
Spine1  6.62778 6.64248 -15.0364
HEad  -25.4297 -6.92223 5.55691
LeftShoulder1  1.39132 -5.12223 -8.68509
LeftArm  -41.3712 -58.5926 -21.4733
LeftForeArm  -10.2296 -37.2546 -9.11092
LeftHand  -0.0201371 1.28017 0.375739
RightShoulder  0.611184 4.43522 -0.849466
RightArm  -48.8442 60.981 15.5794
RightForeArm  -29.9263 17.5636 1.22888
RightHand  -0.0583597 4.64844 -0.965851
LeftUpLeg  -28.1671 10.695 -0.605134
LeftLeg  15.34 -5.33276 -2.79032
LeftFoot  8.97467 -1.49917 8.04629
LeftToes  -1.45701e-009 4.75788e-011 -4.21586e-011
780
root  -55.6596 39.391 10.5795 173.682 -69.4468 -169.131
RightUpLeg  -12.2933 1.08721 -9.62009
RightLeg  13.855 10.9996 1.82424
RightFoot  -4.52751 -0.745216 11.9498
RightToes  1.33877e-009 0 -3.6325e-017
Spine  27.3038 0.444062 9.10296
Spine1  7.07118 6.59456 -14.9749
HEad  -23.8134 -7.25455 5.27816
LeftShoulder1  1.43146 -4.71442 -10.1256
LeftArm  -38.3499 -54.8692 -24.1589
LeftForeArm  -8.79765 -41.6453 -10.4937
LeftHand  -0.0412107 0.0798073 0.94507
RightShoulder  0.675264 4.40316 0.117976
RightArm  -50.6356 59.4484 20.5266
RightForeArm  -23.7383 21.8569 4.78012
RightHand  -0.136229 4.61589 -1.87135
LeftUpLeg  -26.9572 11.0189 -0.417983
LeftLeg  14.8091 -4.06599 -2.79409
LeftFoot  8.99854 -1.58331 8.50249
LeftToes  -1.45701e-009 4.75788e-011 -4.21586e-011
781
root  -55.6482 39.421 10.8929 173.693 -67.5732 -169.704
RightUpLeg  -11.45 -0.432137 -9.34417
RightLeg  11.8576 12.8793 1.19961
RightFoot  -3.50939 -0.868803 12.308
RightToes  1.33877e-009 0 -3.6325e-017
Spine  26.3393 0.551457 8.8315
Spine1  7.4381 6.68148 -15.1761
HEad  -23.8846 -6.75433 5.3016
LeftShoulder1  1.46339 -4.16517 -11.9651
LeftArm  -35.5008 -51.5327 -25.8691
LeftForeArm  -8.61443 -45.6215 -12.0133
LeftHand  -0.073788 1.14022 1.85465
RightShoulder  0.745826 4.1594 1.47056
RightArm  -47.6191 58.148 25.9738
RightForeArm  -19.8434 26.6055 6.79259
RightHand  -0.0735456 4.80458 -1.1312
LeftUpLeg  -25.9962 10.9753 0.135219
LeftLeg  14.2429 -2.0273 -2.76695
LeftFoot  9.09695 -1.65475 8.85028
LeftToes  -1.45701e-009 4.75788e-011 -4.21586e-011
782
root  -55.6477 39.4648 11.2408 173.879 -65.6604 -170.891
RightUpLeg  -10.4578 -3.47427 -9.2887
RightLeg  10.9026 12.1995 0.951986
RightFoot  -2.81433 -0.898736 11.7567
RightToes  1.33877e-009 0 -3.6325e-017
Spine  25.5047 0.585552 8.03213
Spine1  7.81032 6.4217 -14.8594
HEad  -23.9725 -5.67459 5.82426
LeftShoulder1  1.4443 -3.57737 -13.4135
LeftArm  -33.994 -47.4932 -27.1077
LeftForeArm  -7.0504 -48.9542 -13.4026
LeftHand  -0.0660554 0.888039 1.58707
RightShoulder  0.826753 3.97231 2.99206
RightArm  -40.9922 56.7365 32.6522
RightForeArm  -19.4835 31.705 7.97158
RightHand  -0.0994259 4.73445 -1.46309
LeftUpLeg  -24.3593 10.7149 0.545282
LeftLeg  13.2276 0.270659 -2.7597
LeftFoot  9.32565 -1.77689 9.40946
LeftToes  -1.45701e-009 4.75788e-011 -4.21586e-011
783
root  -55.534 39.4405 11.5344 172.493 -64.6243 -170.001
RightUpLeg  -10.0317 -6.82949 -8.47883
RightLeg  12.4325 5.47767 0.690806
RightFoot  -3.62957 -0.746787 10.6749
RightToes  1.33877e-009 0 -3.6325e-017
Spine  24.1496 0.43841 7.9217
Spine1  8.40966 5.97934 -14.0711
HEad  -23.2261 -5.89936 5.58441
LeftShoulder1  1.49118 -3.32758 -14.9761
LeftArm  -32.2887 -43.5816 -27.7737
LeftForeArm  -6.39424 -51.9848 -14.9263
LeftHand  -0.0957486 0.536236 2.2523
RightShoulder  0.88602 3.44514 4.91818
RightArm  -35.1406 54.8683 38.4233
RightForeArm  -18.6627 36.5648 9.33553
RightHand  -0.218662 3.66735 -3.04103
LeftUpLeg  -23.9427 11.0514 0.973456
LeftLeg  13.1568 0.934515 -2.6308
LeftFoot  9.3468 -1.86838 9.89597
LeftToes  -1.45701e-009 4.75788e-011 -4.21586e-011
